<?xml version="1.0" encoding="utf-8"?>
<!-- Generator: Adobe Illustrator 16.0.0, SVG Export Plug-In . SVG Version: 6.00 Build 0)  -->
<!DOCTYPE svg PUBLIC "-//W3C//DTD SVG 1.1//EN" "http://www.w3.org/Graphics/SVG/1.1/DTD/svg11.dtd">
<svg version="1.1" id="Layer_1" xmlns="http://www.w3.org/2000/svg" xmlns:xlink="http://www.w3.org/1999/xlink" x="0px" y="0px"
	 width="30px" height="30px" viewBox="0 0 30 30" enable-background="new 0 0 30 30" xml:space="preserve">
<g>
	<g>
		<polygon fill="#FFFFFF" points="21.982,21.573 11.189,21.573 6.152,7.037 2.304,7.037 2.304,5.462 7.272,5.462 12.31,19.999 
			21.982,19.999 		"/>
	</g>
	<g>
		<polygon fill="#FFFFFF" points="22.452,18.88 10.805,18.88 10.805,17.307 21.516,17.307 25.857,9.286 10.805,9.286 10.805,7.711 
			28.5,7.711 		"/>
	</g>
	<g>
		<path fill="#FFFFFF" d="M13.308,25.885c-1.545,0-2.803-1.32-2.803-2.941c0-1.623,1.258-2.942,2.803-2.942s2.803,1.319,2.803,2.942
			C16.111,24.564,14.854,25.885,13.308,25.885z M13.308,21.573c-0.678,0-1.229,0.614-1.229,1.368c0,0.756,0.551,1.369,1.229,1.369
			c0.678,0,1.229-0.613,1.229-1.369C14.538,22.188,13.986,21.573,13.308,21.573z"/>
	</g>
	<g>
		<path fill="#FFFFFF" d="M21.99,25.885c-1.545,0-2.805-1.32-2.805-2.941c0-1.623,1.258-2.942,2.805-2.942
			c1.546,0,2.804,1.319,2.804,2.942C24.794,24.564,23.536,25.885,21.99,25.885z M21.99,21.573c-0.678,0-1.229,0.614-1.229,1.368
			c0,0.756,0.552,1.369,1.229,1.369s1.23-0.613,1.23-1.369C23.221,22.188,22.668,21.573,21.99,21.573z"/>
	</g>
</g>
</svg>
