<?xml version="1.0" encoding="utf-8"?>
<!-- Generator: Adobe Illustrator 16.0.0, SVG Export Plug-In . SVG Version: 6.00 Build 0)  -->
<!DOCTYPE svg PUBLIC "-//W3C//DTD SVG 1.1//EN" "http://www.w3.org/Graphics/SVG/1.1/DTD/svg11.dtd">
<svg version="1.1" id="Layer_1" xmlns="http://www.w3.org/2000/svg" xmlns:xlink="http://www.w3.org/1999/xlink" x="0px" y="0px"
	 width="30px" height="30px" viewBox="0 0 30 30" enable-background="new 0 0 30 30" xml:space="preserve">
<g>
	<g>
		<path fill="#979797" d="M26.724,9.056h-2.149V7.551h-3.322l-0.294-0.604c-0.055-0.106-1.512-2.811-5.928-2.691L15,4.258
			l-0.03-0.002c-4.493-0.115-5.916,2.662-5.928,2.691L8.748,7.551H5.424v1.505H3.276V5.401h4.206C8.289,4.276,10.497,2.003,15,2.106
			c4.508-0.104,6.711,2.17,7.518,3.295h4.206V9.056z"/>
	</g>
	<g>
		<path fill="#979797" d="M19.204,27.897c-0.014,0-0.028,0-0.042,0c-1.6-0.016-4.057,0-4.079,0h-0.077c-0.032,0-2.49-0.016-4.09,0
			c-0.013,0-0.028,0-0.041,0c-2.102,0-2.967-1.427-3.042-2.413L6.005,9.248l2.137-0.24l1.838,16.328l-0.004-0.012
			c0.028,0.176,0.23,0.42,0.922,0.425c1.614-0.016,4.09,0,4.114,0h0.062c0.019,0,2.493-0.016,4.108,0c0.009,0,0.019,0,0.028,0
			c0.685,0,0.865-0.251,0.897-0.464l1.832-16.277l2.135,0.24l-1.827,16.236C22.171,26.471,21.307,27.897,19.204,27.897z"/>
	</g>
	<g>
		<rect x="13.734" y="9.2" fill="#979797" width="2.15" height="14.97"/>
	</g>
	<g>
		
			<rect x="17.422" y="9.604" transform="matrix(0.9966 0.0827 -0.0827 0.9966 1.4693 -1.4709)" fill="#979797" width="2.15" height="14.806"/>
	</g>
	<g>
		
			<rect x="4.081" y="15.933" transform="matrix(0.0823 0.9966 -0.9966 0.0823 27.4882 4.1615)" fill="#979797" width="14.806" height="2.148"/>
	</g>
</g>
</svg>
