<?xml version="1.0" encoding="utf-8"?>
<!-- Generator: Adobe Illustrator 16.0.0, SVG Export Plug-In . SVG Version: 6.00 Build 0)  -->
<!DOCTYPE svg PUBLIC "-//W3C//DTD SVG 1.1//EN" "http://www.w3.org/Graphics/SVG/1.1/DTD/svg11.dtd">
<svg version="1.1" id="Layer_1" xmlns="http://www.w3.org/2000/svg" xmlns:xlink="http://www.w3.org/1999/xlink" x="0px" y="0px"
	 width="30px" height="30px" viewBox="0 0 30 30" enable-background="new 0 0 30 30" xml:space="preserve">
<g>
	<g>
		<path fill="#FFFFFF" d="M18.238,22.094l-0.057-0.396c-0.373-2.682,1.978-5.256,2.078-5.363l0.699-0.756l8.186,7.313l-0.582,0.771
			c-0.155,0.204-3.625,4.692-9.304,4.692c-0.477,0-0.968-0.033-1.475-0.101c-3.442-0.464-7.345-2.453-10.196-5.192
			c-3.063-2.502-5.506-6.136-6.381-9.497C-0.457,7.169,4.272,2.506,4.474,2.311l0.689-0.666l7.65,6.613L12.411,9
			c-0.076,0.141-1.899,3.444-4.74,3.379C9.529,19.07,18.238,22.094,18.238,22.094z"/>
	</g>
</g>
</svg>
