<svg version="1.2" xmlns="http://www.w3.org/2000/svg" viewBox="0 0 1610 248" width="1610" height="248">
	<title>LOGO pdf-ai</title>
	<style>
		.s0 { fill: #ea6954 } 
		.s1 { fill: #0b2540 } 
	</style>
	<g id="Layer 1">
		<g id="&lt;Group&gt;">
			<path id="&lt;Path&gt;" class="s0" d="m195.7 238.6c3.6-14.1 7.3-26.8 10-39.8 8.6-39.8-24.8-66.8-62-61-16.5 2.5-29.5 10.6-40 24-18.3 23.6-37.7 46.5-56.2 70-4.1 5.3-8.5 7.3-14.9 6.9-6.8-0.5-13.6-0.1-22.3-0.1 7.1-9.2 13.3-17.3 19.7-25.2 18.1-22.4 36.4-44.5 54.4-66.9 28-34.6 71.3-44.1 110.7-23.3 7 3.7 12.6 10.4 18.7 15.9 2.1 1.8 3.6 4.3 6.5 7.9 2.4-9.8 4.6-17.7 6.3-25.6 3.9-17.8 13.7-31.2 29.4-40.3 9.5-5.4 9.4-9.9-0.1-15.8-13.6-8.5-28.8-12.2-44.5-13.5-18.6-1.6-37.2-2.4-55.8-3.7-5.9-0.4-9.2 2-9.3 7.8-0.2 6.5 0.6 13 0.4 19.5 0 3.3-1.4 6.6-2.5 11.2-11.5-7.7-17-17.5-19.5-27.9-3.3-13.7-4.9-27.9-5.9-42-0.6-10 3.5-12 11.6-6.5 17.3 11.9 36.9 14.9 57.3 16 16.2 0.9 32.5 1.8 48.4 4.5 29.7 4.9 51.6 22.7 69.4 45.9 3.7 4.9 6.1 10.8 9.1 16.3-5.8 1.1-11.5 2.8-17.4 3.1-33.2 1.6-47.5 16.9-52.1 50.8-4 28.9-11.2 57.3-17.5 85.8-0.5 2.4-4.3 5.5-6.8 5.7-7.9 0.7-15.9 0.3-25.1 0.3z"/>
			<g id="&lt;Group&gt;">
				<path id="&lt;Path&gt;" class="s1" d="m1335.4 109.7c-41.3 0-82 0-123.5 0 0 9.5 0 18.3 0 28.2 40.1 0 80.2 0 121.8 0-4.3 14.6-13.4 22.9-25.2 28.1-6.1 2.6-13.1 4-19.8 4.1-22.2 0.5-44.4 0.2-66.7 0.2-3.1 0-6.3 0-10.2 0 0 10.3 0 19.6 0 29.9 45.6 0 90.7 0 137 0-4 11.8-7.1 22.6-11.4 32.9-0.9 2.3-5.8 4.3-8.8 4.4-47.1 0.2-94.2 0.1-141.4 0.1-19.7 0-19.7 0-19.7-19.5 0.1-45.1 0.2-90.1-0.1-135.2 0-7.8 1.6-10.7 10.3-10.6 49.7 0.4 99.5 0.2 149.3 0.2 2.6 0 5.3 0 8.4 0 0 12.3 0 24.1 0 37.2z"/>
				<path id="&lt;Path&gt;" class="s1" d="m978.8 129.9c0 37.2 0 71.5 0 106.7-15.4 0-30 0-45.4 0 0-3.6 0-6.6 0-9.6 0-48.2 0.1-96.3-0.2-144.5-0.1-7.8 2.6-9.2 9.8-9.8 23.3-2.1 42 3 59.3 21 27.2 28.2 57.7 53.2 86.8 79.6 2.4 2.2 4.9 4.3 9.3 8.2 0-37.2 0-72.2 0-107.9 15.6 0 29.8 0 44.5 0 0 54.5 0 108.6 0 163.8-14.2 0-28.1 0.3-42-0.2-2.6-0.1-5.3-2.7-7.5-4.7-35-31.6-69.9-63.3-104.9-94.9-2.4-2.2-5-4-9.7-7.7z"/>
				<path id="&lt;Path&gt;" class="s1" d="m1545 72.3c16.7 0 32.3 0 48 0 5.2 33.9-5.3 60.1-36.4 75.7 9.3 7.6 18.4 14.4 26.8 21.9 10.8 9.7 14.5 22.7 15 36.7 0.3 8.5 0 17.1 0.2 25.7 0.1 4.2-0.8 6.7-5.9 6.6-13.9-0.3-27.8-0.1-43-0.1 0-8.9 0-17.3 0-25.8 0-25.6-9.9-39.3-35-45.7-20.4-5.3-41-5.3-61.2 2.1-20.2 7.5-28.5 19.2-28.6 40.6 0 9.2 0 18.3 0 28.8-15.1 0-29.8 0.1-44.5-0.3-1.5 0-4.1-3.2-4.1-5 0-12.7-0.7-25.6 1.3-38.1 3.1-18.6 15.9-30.9 31.6-40.5 3-1.8 6-3.6 10.1-6-31.9-16.4-43-42.4-37.7-76.6 15.5 0 31.1 0 48 0 0 6 0.4 11.8-0.1 17.6-1.5 21.6 9.2 33.4 27.4 40.7 22.1 8.8 44.7 8.4 66.2-2.4 14.4-7.3 23.2-18.8 22-36.2-0.5-6.4-0.1-12.9-0.1-19.7z"/>
				<path id="&lt;Path&gt;" class="s1" d="m610.6 113.4c-11.3 19.3-21.9 37.2-33.6 57 14.8 0 27.2 0 39.3 0 2.9 13.7-7.5 29.9-22.7 33.6-9.9 2.5-20.5 2.3-30.9 2.4-5.2 0.1-8.9 1-10.6 6.2-7.1 21.1-22.1 27.5-43.1 23.9-6.3-1-12.8-0.1-21.1-0.1 5.4-9.2 10-17.3 14.8-25.3 26.6-44 53.3-87.9 79.7-132.1 2.9-4.8 5.9-6.9 11.5-6.8 11.7 0.4 23.3-0.3 34.9 0.4 3.9 0.2 9.1 2.7 11 5.8 31.2 51.1 62.1 102.5 93 153.9 0.4 0.7 0.6 1.6 1.5 3.9-16.3 0-32 0.3-47.6-0.3-2.1 0-4.6-3.7-6.1-6.2-20.5-34-40.8-68.2-61.3-102.3-2.4-4.2-5.1-8.2-8.7-14z"/>
				<path id="&lt;Path&gt;" class="s1" d="m911 72.3c1.2 22.8 2 44.5-13.7 62.6-15 17.3-35.4 24.1-57.5 28.5 0 24.9 0 49.2 0 74.1-14.5 0-28.2 0-42.7 0 0-21.4-0.3-42.1 0.2-62.9 0.2-8.1-1.4-12-10.3-13.8-20.2-4.2-38-13.2-50.6-30.5-12.8-17.5-11-37.4-10.8-58 12.2 0 23.6-0.2 34.9 0.2 1.9 0.1 4.9 3.2 5.2 5.2 0.7 5.7 0.2 11.5 0.3 17.2 0.2 17.9 9 30.4 25.2 37.1 17.7 7.3 36.1 7.3 53.8 0.3 17.4-6.9 26.1-20.3 26-39.4-0.1-20.6 0.2-20.6 20.9-20.6 6.1 0 12.1 0 19.1 0z"/>
				<path id="&lt;Path&gt;" class="s1" d="m440.5 72.2c15.5 0 29.7 0 44.7 0 0.2 3.6 0.5 6.9 0.5 10.1-0.1 34.9-1.4 69.8 0 104.6 1.2 29.4-23.3 50.1-44.7 51.1-31.9 1.5-63.9 0.4-96.7 0.4 3.7-11.1 7.1-22 11.2-32.5 0.7-1.9 4.7-3.4 7.2-3.5 17.3-0.3 34.5-0.2 51.8-0.3 20.9-0.1 26-5.3 26-26.5q0-46.3 0-92.5c0-3.4 0-6.7 0-10.9z"/>
			</g>
		</g>
	</g>
</svg>