<?xml version="1.0" encoding="utf-8"?>
<!-- Generator: Adobe Illustrator 16.0.0, SVG Export Plug-In . SVG Version: 6.00 Build 0)  -->
<!DOCTYPE svg PUBLIC "-//W3C//DTD SVG 1.1//EN" "http://www.w3.org/Graphics/SVG/1.1/DTD/svg11.dtd">
<svg version="1.1" id="Layer_1" focusable="false" xmlns="http://www.w3.org/2000/svg" xmlns:xlink="http://www.w3.org/1999/xlink"
	 x="0px" y="0px" width="841.889px" height="595.281px" viewBox="0 0 841.889 595.281" enable-background="new 0 0 841.889 595.281"
	 xml:space="preserve">
<path fill="#666666" d="M365.137,409.256h-55.808V55.807c0-10.273-8.328-18.603-18.603-18.603h-37.204
	c-10.274,0-18.603,8.329-18.603,18.603v353.448h-55.808c-16.498,0-24.835,20.044-13.127,31.752l93.013,111.615
	c7.264,7.259,19.035,7.259,26.3,0l93.012-111.615C389.96,429.323,381.67,409.256,365.137,409.256z M644.175,334.845h-148.82
	c-10.274,0-18.603,8.328-18.603,18.603v37.205c0,10.273,8.328,18.603,18.603,18.603h65.108l-71.225,81.909
	c-7.943,7.061-12.487,17.183-12.486,27.811v20.498c0,10.273,8.328,18.603,18.603,18.603h148.82c10.273,0,18.603-8.329,18.603-18.603
	v-37.205c0-10.274-8.329-18.603-18.603-18.603h-65.109l71.225-81.909c7.943-7.062,12.488-17.183,12.487-27.812v-20.497
	C662.778,343.174,654.448,334.845,644.175,334.845z M680.286,235.578l-68.91-186.025c-2.644-7.405-9.658-12.349-17.521-12.348
	h-48.181c-7.862-0.001-14.877,4.942-17.521,12.348l-68.911,186.025c-3.454,9.676,1.589,20.319,11.265,23.774
	c2.004,0.716,4.116,1.082,6.245,1.083h28.869c8.072,0.003,15.225-5.201,17.707-12.883l5.139-15.021h82.549l5.127,15.021
	c2.487,7.698,9.664,12.905,17.754,12.883h28.881c10.273-0.006,18.598-8.339,18.593-18.612
	C681.368,239.694,681.002,237.582,680.286,235.578z M550.708,167.423l19.057-55.808l19.056,55.808H550.708z"/>
</svg>
